<svg width="498" height="200" viewBox="0 0 498 200" fill="none" xmlns="http://www.w3.org/2000/svg">
<g clip-path="url(#clip0_7772_35)">
<path d="M99.57 99.5698V174.25C99.5673 180.85 96.9442 187.18 92.277 191.847C87.6098 196.514 81.2804 199.137 74.68 199.14H0V124.46C0 117.859 2.62233 111.528 7.29011 106.86C11.9579 102.192 18.2888 99.5698 24.89 99.5698H99.57Z" fill="white"/>
<path d="M497.84 99.57V174.25C497.84 180.843 495.225 187.166 490.568 191.832C485.911 196.499 479.593 199.127 473 199.14H398.28L298.71 99.57V24.89C298.71 21.6214 299.354 18.3848 300.605 15.365C301.855 12.3452 303.689 9.60136 306 7.29011C308.311 4.97886 311.055 3.14548 314.075 1.89464C317.095 0.643799 320.331 0 323.6 0L398.28 0L497.84 99.57Z" fill="white"/>
<path d="M298.71 99.57V174.25C298.707 180.852 296.083 187.183 291.413 191.85C286.744 196.518 280.412 199.14 273.81 199.14H199.14L99.5699 99.57V24.89C99.5699 18.2888 102.192 11.9579 106.86 7.29011C111.528 2.62233 117.859 0 124.46 0H199.14L298.71 99.57Z" fill="white"/>
</g>
<defs>
<clipPath id="clip0_7772_35">
<rect width="497.84" height="199.14" fill="white"/>
</clipPath>
</defs>
</svg>
