<svg xmlns="http://www.w3.org/2000/svg" viewBox="0 0 667.79 152.91"><defs><style>.cls-1{fill:#275b7a;}.cls-2{fill:#897e72;}</style></defs><g id="Layer_2" data-name="Layer 2"><g id="Layer_2-2" data-name="Layer 2"><path class="cls-1" d="M117.18,47.2H142.8v8.67c7.46-7.06,16.94-10.69,27.83-10.69,13.71,0,24.81,6,31.66,16.13C211,50.83,222.67,45.18,237,45.18c23.39,0,39.73,17.14,39.73,41.55v64.94H251.31V90.56c0-14.32-8.27-23.19-21-23.19a24.47,24.47,0,0,0-21.18,11.29c.2,2.62.61,5.24.61,8.07v64.94H184.14V90.56c0-14.32-8.06-23.19-20.77-23.19-8.67,0-15.73,3.42-20.57,10.48v73.82H117.18Z"/><path class="cls-1" d="M288.66,117c-10.14-28.5,4-58.58,32.12-68.58,27.74-9.88,56.43,5.18,67.11,35.2l2.24,6.27-74.3,26.44a31.29,31.29,0,0,0,37.37,12.39c8.93-3.18,16-9.13,19.52-16.15l21,9c-8.6,13.76-19,22.39-34.4,27.87C329.65,160,298.87,145.68,288.66,117ZM360.22,81c-7.31-11.53-20.56-16.87-32.91-12.48-12.73,4.53-19.45,16.34-17.83,30.53Z"/><path class="cls-1" d="M399.94,18.76a14.83,14.83,0,1,1,14.93,14.72A14.73,14.73,0,0,1,399.94,18.76Zm2,28.44h25.61V151.67H402Z"/><path class="cls-1" d="M461.72,68.58h-23.4V47.2h23.4V35.7c0-23,13.71-35.7,38.52-35.7a62.51,62.51,0,0,1,15.94,2V23.6A48.89,48.89,0,0,0,503.47,22c-10.89,0-16.14,4.44-16.14,14.32V47.2h28.85V68.58H487.33v83.09H461.72Z"/><path class="cls-1" d="M526.68,18.76a14.83,14.83,0,1,1,14.93,14.72A14.73,14.73,0,0,1,526.68,18.76Zm2,28.44h25.62V151.67H528.7Z"/><path class="cls-2" d="M61.53,65.49v46.14A15.39,15.39,0,0,1,46.15,127H0V80.87A15.38,15.38,0,0,1,15.38,65.49Z"/><path class="cls-2" d="M667.79,65.49v46.14A15.39,15.39,0,0,1,652.41,127H606.26V80.87a15.38,15.38,0,0,1,15.38-15.38Z"/></g></g></svg>